<svg width="342" height="245" viewBox="0 0 342 245" fill="none" xmlns="http://www.w3.org/2000/svg">
<g clip-path="url(#clip0_1304_31154)">
<path d="M338.109 212.623C344.61 204.031 342.955 191.764 334.412 185.226C325.87 178.687 313.675 180.352 307.175 188.944C300.674 197.536 302.329 209.803 310.872 216.341C319.414 222.88 331.609 221.215 338.109 212.623Z" fill="#B7C6DA"/>
<path d="M282.187 240.222C285.813 235.431 284.89 228.59 280.126 224.943C275.362 221.296 268.561 222.225 264.935 227.017C261.31 231.809 262.233 238.65 266.997 242.296C271.761 245.943 278.562 245.014 282.187 240.222Z" fill="#B7C6DA"/>
<path d="M10.5677 133.896C12.5679 131.252 12.0587 127.478 9.43025 125.466C6.80185 123.454 3.04962 123.967 1.04942 126.61C-0.950781 129.254 -0.441528 133.028 2.18687 135.04C4.81528 137.052 8.5675 136.54 10.5677 133.896Z" fill="#B7C6DA"/>
<path d="M186.885 147.985C196.229 147.985 205.199 150.993 212.675 157.76C215.291 160.016 215.665 162.648 213.796 164.528C211.927 166.783 209.311 166.408 206.695 164.152C195.481 154.001 178.662 154.001 167.075 164.152C164.458 166.408 161.468 166.783 159.973 164.528C158.478 162.648 158.852 160.016 161.095 158.136C167.822 151.369 176.419 148.361 186.885 147.985Z" fill="#0B7FDF"/>
<path d="M210.433 120.164C208.19 122.796 206.321 124.675 204.453 126.555C202.21 128.811 199.594 128.811 197.725 126.931C195.856 125.051 196.23 122.42 198.099 120.54C199.967 118.66 201.836 116.78 204.453 114.524C202.21 112.269 200.341 110.765 198.472 108.885C196.23 106.629 195.856 103.622 197.725 101.742C199.594 99.8619 202.21 99.8619 204.453 102.494C206.321 104.373 208.19 106.253 210.059 108.885C212.302 106.253 214.171 104.373 216.04 102.494C218.282 100.238 220.525 100.238 222.394 102.118C224.262 103.998 224.262 106.629 222.02 108.509C220.151 110.389 217.908 112.269 215.292 114.9C217.535 117.156 219.777 118.66 221.646 120.54C223.889 122.796 223.889 125.427 222.02 127.307C220.151 129.187 217.535 128.811 215.666 126.931C214.544 124.675 212.676 122.796 210.433 120.164Z" fill="#0B7FDF"/>
<path d="M163.337 120.164C161.095 122.796 159.226 124.676 157.357 126.556C155.114 128.811 152.498 128.811 150.629 126.932C148.76 125.052 149.134 122.42 151.003 120.54C152.872 118.66 154.741 116.781 157.357 114.525C155.114 112.645 153.619 110.765 151.75 109.261C149.134 106.63 148.76 103.998 150.629 101.742C152.872 99.8622 155.114 99.8622 157.731 102.87C159.6 104.75 161.095 106.254 162.963 108.509C165.206 106.254 167.075 103.998 168.944 102.118C171.186 99.8622 173.429 99.8622 175.298 101.742C177.167 103.622 177.167 106.254 174.924 108.133C173.055 110.013 170.813 111.893 168.196 114.525C170.439 116.781 172.682 118.284 174.55 120.164C176.793 122.42 176.793 124.676 174.924 126.556C173.055 128.435 170.439 128.435 168.196 126.18C167.075 125.052 166.327 124.3 165.206 123.172C165.58 122.796 164.832 121.668 163.337 120.164Z" fill="#0B7FDF"/>
<path d="M38.4977 79.1849L39.6191 78.433C40.7404 78.057 41.1141 76.5532 40.7404 75.4253L29.5272 52.4915C29.1535 51.3636 27.6584 50.9877 26.5371 51.3636L25.4158 52.1156C24.2945 52.4915 23.9207 53.9954 24.2945 55.1233L35.5076 78.057C35.8813 79.5609 37.3764 79.9368 38.4977 79.1849Z" fill="#0B7FDF"/>
<path d="M30.2753 87.0797C31.0228 85.5758 30.649 84.072 29.1539 83.3201L18.3146 76.9287C16.8195 76.1768 15.3244 76.5527 14.5769 78.0566C13.8294 79.5604 14.2031 81.0643 15.6982 81.8162L26.5376 88.2076C28.0326 88.9595 29.5277 88.5836 30.2753 87.0797Z" fill="#0B7FDF"/>
<path d="M61.6722 76.9287C62.7935 78.0566 64.6623 77.6806 65.7836 76.1768L73.259 66.0258C74.3804 64.8979 74.0066 63.0181 72.5115 61.8902C71.3902 60.7623 69.5213 61.1383 68.4 62.6421L60.9246 72.7931C60.1771 74.297 60.1771 76.1768 61.6722 76.9287Z" fill="#0B7FDF"/>
<path d="M286.681 25.0456L287.803 25.7975C288.924 26.5495 290.045 26.1735 290.793 25.0456L304.622 4.7436C305.37 3.61571 304.996 2.48782 303.875 1.7359L302.753 0.98397C301.632 0.232044 300.511 0.608007 299.763 1.7359L285.934 22.0379C285.56 22.7898 285.934 24.2937 286.681 25.0456Z" fill="#0B7FDF"/>
<path d="M276.59 22.0384C278.085 22.0384 279.581 20.9105 279.581 19.4067V6.99989C279.581 5.49604 278.459 3.99219 276.964 3.99219C275.469 3.99219 273.974 5.12008 273.974 6.62393V19.0307C273.6 20.5346 274.721 22.0384 276.59 22.0384Z" fill="#0B7FDF"/>
<path d="M299.764 43.8446C299.764 45.3485 300.511 46.8523 302.38 46.8523L314.341 48.3562C315.836 48.3562 317.331 47.6043 317.331 45.7244C317.331 44.2206 316.583 42.7167 314.714 42.7167L302.754 41.2129C301.259 41.2129 299.764 42.3408 299.764 43.8446Z" fill="#0B7FDF"/>
<path d="M253.416 194.605C202.957 194.605 152.124 194.605 101.665 194.605C95.3109 194.605 89.7044 192.726 86.7142 186.71C85.2191 184.078 84.4716 180.319 84.4716 177.311C84.0978 164.904 84.4716 152.498 84.4716 140.091C84.4716 138.963 84.4716 137.835 84.4716 136.331C72.8847 136.331 61.2978 136.331 49.7109 136.331C49.7109 137.459 49.7109 138.587 49.7109 139.715C49.7109 165.656 49.7109 191.598 49.7109 217.539C49.7109 223.555 51.206 225.058 57.1864 225.058C109.888 225.058 162.963 225.058 215.665 225.058C221.272 225.058 223.14 223.179 223.14 217.539C223.14 216.411 223.14 215.283 223.14 214.155C223.14 211.148 225.009 209.644 227.999 209.644C230.616 209.644 232.485 210.772 232.858 213.404C234.727 226.938 227.626 235.209 216.039 235.209C162.59 235.209 109.514 235.209 56.065 235.209C45.5995 235.209 39.6191 228.818 39.6191 218.291C39.6191 179.943 39.6191 141.971 39.6191 103.622C39.6191 92.7194 45.9732 86.704 56.4388 86.704C64.6618 86.704 72.8847 86.704 81.1077 86.704C83.7241 86.704 84.0978 85.9521 84.0978 83.3203C84.0978 71.2895 84.0978 59.2587 84.0978 47.2279C84.0978 35.949 90.0782 29.5576 101.291 29.5576C157.731 29.5576 214.17 29.5576 270.983 29.5576C282.57 29.5576 288.55 35.573 288.55 47.2279C288.55 90.0877 288.176 132.571 288.55 175.431C288.55 188.214 280.327 194.981 270.609 194.229L253.416 194.605ZM94.5634 79.1847C94.5634 80.6886 94.5634 81.8165 94.5634 82.9444C94.5634 114.149 94.5634 145.354 94.5634 176.559C94.5634 182.951 96.0585 184.454 102.786 184.454C158.852 184.454 215.291 184.454 271.357 184.454C277.711 184.454 279.206 182.951 279.206 176.559C279.206 145.354 279.206 113.773 279.206 82.5684C279.206 81.4405 279.206 80.3126 279.206 79.1847C217.534 79.1847 156.236 79.1847 94.5634 79.1847ZM93.8159 69.0337C155.488 69.0337 216.786 69.0337 278.085 69.0337C278.085 62.2664 278.085 55.4991 278.085 48.7317C278.085 41.5884 276.59 40.4605 269.862 40.4605C214.17 40.4605 158.104 40.4605 102.413 40.4605C101.291 40.4605 100.544 40.4605 99.4224 40.4605C96.4323 40.8365 93.8159 43.0923 93.8159 46.1C93.8159 53.2433 93.8159 61.1385 93.8159 69.0337ZM84.0978 96.855C74.006 96.855 64.288 96.855 54.57 96.855C51.206 96.855 49.3372 99.1108 49.3372 102.494C49.3372 107.382 49.3372 111.894 49.3372 116.781C49.3372 119.789 49.3372 122.796 49.3372 125.428C61.2978 125.428 72.5109 125.428 84.0978 125.428C84.0978 116.029 84.0978 106.63 84.0978 96.855Z" fill="#0A284A"/>
<path d="M93.8164 69.0341C93.8164 61.1389 93.8164 53.6196 93.8164 45.7244C93.8164 42.7167 96.4328 40.4609 99.423 40.085C100.544 40.085 101.292 40.085 102.413 40.085C158.105 40.085 214.17 40.085 269.862 40.085C276.964 40.085 278.085 41.2128 278.085 48.3561C278.085 55.1235 278.085 61.8908 278.085 68.6582C216.787 69.0341 155.489 69.0341 93.8164 69.0341ZM209.685 54.3716C209.685 51.7398 207.443 49.484 204.452 49.484C201.462 49.484 199.593 51.7398 199.593 54.7475C199.593 57.7552 201.836 59.635 204.452 59.635C207.443 59.635 209.685 57.3793 209.685 54.3716ZM230.99 49.484C228.374 49.484 226.131 52.1158 226.131 54.7475C226.131 57.7552 228.374 59.635 231.364 59.635C233.98 59.635 236.223 57.3793 235.849 54.7475C235.849 51.7398 233.607 49.484 230.99 49.484ZM257.528 59.635C260.144 59.635 262.387 57.3793 262.387 54.7475C262.387 51.7398 260.518 49.484 257.528 49.484C254.911 49.484 252.295 51.7398 252.295 54.3716C252.669 57.3793 254.911 59.635 257.528 59.635Z" fill="#0B7FDF"/>
<path d="M84.0985 96.8555C84.0985 106.631 84.0985 116.03 84.0985 125.429C72.5117 125.429 61.2985 125.429 49.3379 125.429C49.3379 122.421 49.3379 119.789 49.3379 116.782C49.3379 111.894 49.3379 107.382 49.3379 102.495C49.3379 99.1112 51.2067 96.8555 54.5707 96.8555C64.6625 96.8555 74.0067 96.8555 84.0985 96.8555Z" fill="#0B7FDF"/>
<path d="M209.685 54.3709C209.685 57.0026 207.442 59.2584 204.826 59.2584C202.209 59.2584 199.967 57.3786 199.967 54.3709C199.967 51.3632 201.836 49.1074 204.826 49.1074C207.068 49.4834 209.311 51.7392 209.685 54.3709Z" fill="#E9EFF4"/>
<path d="M230.99 49.4834C233.606 49.4834 235.849 51.7392 235.849 54.3709C235.849 57.0027 233.98 59.2584 231.364 59.2584C228.373 59.2584 226.131 57.3786 226.131 54.3709C226.131 52.1151 228 49.8594 230.99 49.4834Z" fill="#E9EFF4"/>
<path d="M257.527 59.6343C254.911 59.6343 252.668 57.3785 252.668 54.7468C252.668 52.115 254.911 49.4833 257.901 49.8593C260.517 49.8593 262.76 52.115 262.76 55.1227C262.386 57.3785 260.143 59.6343 257.527 59.6343Z" fill="#E9EFF4"/>
<path d="M70.4976 23.3365C74.7271 17.7461 73.6502 9.76542 68.0924 5.51114C62.5346 1.25687 54.6005 2.34002 50.371 7.93043C46.1415 13.5208 47.2184 21.5015 52.7762 25.7558C58.334 30.0101 66.2681 28.9269 70.4976 23.3365Z" fill="#B7C6DA"/>
</g>
<defs>
<clipPath id="clip0_1304_31154">
<rect width="342" height="244" fill="white" transform="translate(0 0.608398)"/>
</clipPath>
</defs>
</svg>
