<svg width="18" height="18" viewBox="0 0 18 18" fill="none" xmlns="http://www.w3.org/2000/svg">
<path fill-rule="evenodd" clip-rule="evenodd" d="M7.147 3.45698C7.61861 1.51434 10.3814 1.51434 10.853 3.45698C10.934 3.79053 11.3161 3.94882 11.6092 3.77022C13.3164 2.73005 15.27 4.68363 14.2298 6.39076C14.0512 6.68387 14.2095 7.06602 14.543 7.147C16.4857 7.61861 16.4857 10.3814 14.543 10.853C14.2095 10.934 14.0512 11.3161 14.2298 11.6092C15.27 13.3164 13.3164 15.27 11.6092 14.2298C11.3161 14.0512 10.934 14.2095 10.853 14.543C10.3814 16.4857 7.61861 16.4857 7.147 14.543C7.06602 14.2095 6.68388 14.0512 6.39076 14.2298C4.68363 15.27 2.73005 13.3164 3.77022 11.6092C3.94882 11.3161 3.79053 10.934 3.45698 10.853C1.51434 10.3814 1.51434 7.61861 3.45698 7.147C3.79053 7.06602 3.94882 6.68387 3.77022 6.39076C2.73005 4.68363 4.68363 2.73005 6.39076 3.77022C6.68388 3.94882 7.06602 3.79053 7.147 3.45698ZM9.49252 3.78726C9.36717 3.27091 8.63283 3.27092 8.50748 3.78726C8.20283 5.04217 6.76508 5.63771 5.6623 4.96577C5.20855 4.6893 4.6893 5.20855 4.96577 5.6623C5.63771 6.76508 5.04217 8.20283 3.78726 8.50748C3.27092 8.63283 3.27091 9.36717 3.78726 9.49252C5.04217 9.79717 5.63771 11.2349 4.96577 12.3377C4.6893 12.7914 5.20855 13.3107 5.6623 13.0342C6.76508 12.3623 8.20283 12.9578 8.50748 14.2127C8.63283 14.7291 9.36717 14.7291 9.49252 14.2127C9.79717 12.9578 11.2349 12.3623 12.3377 13.0342C12.7914 13.3107 13.3107 12.7914 13.0342 12.3377C12.3623 11.2349 12.9578 9.79717 14.2127 9.49252C14.7291 9.36717 14.7291 8.63283 14.2127 8.50748C12.9578 8.20283 12.3623 6.76508 13.0342 5.6623C13.3107 5.20855 12.7914 4.6893 12.3377 4.96577C11.2349 5.63771 9.79717 5.04217 9.49252 3.78726ZM9 7.6C8.2268 7.6 7.6 8.2268 7.6 9C7.6 9.7732 8.2268 10.4 9 10.4C9.7732 10.4 10.4 9.7732 10.4 9C10.4 8.2268 9.7732 7.6 9 7.6ZM6.2 9C6.2 7.4536 7.4536 6.2 9 6.2C10.5464 6.2 11.8 7.4536 11.8 9C11.8 10.5464 10.5464 11.8 9 11.8C7.4536 11.8 6.2 10.5464 6.2 9Z" fill="#0B7FDF"/>
</svg>
